<?xml version="1.0" encoding="utf-8"?>
<!-- Generator: Adobe Illustrator 26.0.1, SVG Export Plug-In . SVG Version: 6.00 Build 0)  -->
<svg version="1.1" id="Layer_1" xmlns="http://www.w3.org/2000/svg" xmlns:xlink="http://www.w3.org/1999/xlink" x="0px" y="0px"
	 viewBox="0 0 500 500" style="enable-background:new 0 0 500 500;" xml:space="preserve">
<style type="text/css">
	.st0{fill:#1C1C1C;}
	.st1{fill:url(#SVGID_1_);}
	.st2{fill:url(#SVGID_00000008849847701627950080000005734412590765582741_);}
	.st3{fill:url(#SVGID_00000171721594518403715960000005503374794375626889_);}
	.st4{fill:url(#SVGID_00000140002581853328811690000000747748803707468194_);}
</style>
<path class="st0" d="M437,500H63c-34.8,0-63-28.2-63-63V63C0,28.2,28.2,0,63,0H437c34.8,0,63,28.2,63,63V437
	C500,471.8,471.8,500,437,500z"/>
<g>
	<linearGradient id="SVGID_1_" gradientUnits="userSpaceOnUse" x1="1436.995" y1="134.3175" x2="1437.4691" y2="134.3175">
		<stop  offset="0" style="stop-color:#538BEF"/>
		<stop  offset="1" style="stop-color:#4E5FB8"/>
	</linearGradient>
	<path class="st1" d="M195,232.5H73.7c-20.7,0-37.5-16.8-37.5-37.5V73.7C36.1,53,53,36.1,73.7,36.1H195c20.7,0,37.5,16.8,37.5,37.5
		V195C232.5,215.7,215.7,232.5,195,232.5z"/>
	
		<linearGradient id="SVGID_00000170976795918866889010000008095525915576233605_" gradientUnits="userSpaceOnUse" x1="134.3175" y1="267.5139" x2="134.3175" y2="463.8511">
		<stop  offset="0" style="stop-color:#FFF341"/>
		<stop  offset="1" style="stop-color:#EACF26"/>
	</linearGradient>
	<path style="fill:url(#SVGID_00000170976795918866889010000008095525915576233605_);" d="M195,463.9H73.7
		c-20.7,0-37.5-16.8-37.5-37.5V305c0-20.7,16.8-37.5,37.5-37.5H195c20.7,0,37.5,16.8,37.5,37.5v121.3
		C232.5,447,215.7,463.9,195,463.9z"/>
	
		<linearGradient id="SVGID_00000068647953722501815280000000646830569250910339_" gradientUnits="userSpaceOnUse" x1="365.6825" y1="36.1489" x2="365.6825" y2="232.4861">
		<stop  offset="0" style="stop-color:#F91F2F"/>
		<stop  offset="1" style="stop-color:#D6021A"/>
	</linearGradient>
	<path style="fill:url(#SVGID_00000068647953722501815280000000646830569250910339_);" d="M426.3,232.5H305
		c-20.7,0-37.5-16.8-37.5-37.5V73.7c0-20.7,16.8-37.5,37.5-37.5h121.3c20.7,0,37.5,16.8,37.5,37.5V195
		C463.9,215.7,447,232.5,426.3,232.5z"/>
	
		<linearGradient id="SVGID_00000075883686368692225120000009281579333551229600_" gradientUnits="userSpaceOnUse" x1="365.6825" y1="267.5139" x2="365.6825" y2="463.8511">
		<stop  offset="0" style="stop-color:#FFFFFF"/>
		<stop  offset="1" style="stop-color:#D9D9D9"/>
	</linearGradient>
	<path style="fill:url(#SVGID_00000075883686368692225120000009281579333551229600_);" d="M365.7,463.9L365.7,463.9
		c-54.2,0-98.2-44-98.2-98.2v0c0-54.2,44-98.2,98.2-98.2h0c54.2,0,98.2,44,98.2,98.2v0C463.9,419.9,419.9,463.9,365.7,463.9z"/>
</g>
</svg>
