<svg id="eSZdFYtosJP1" xmlns="http://www.w3.org/2000/svg" xmlns:xlink="http://www.w3.org/1999/xlink" viewBox="0 0 500 500" shape-rendering="geometricPrecision" text-rendering="geometricPrecision"><rect width="477.888643" height="500" rx="0" ry="0" transform="matrix(1.046269 0 0 0.999999-.000036 0)" fill="#1c1c1c" stroke-width="0"/><g transform="matrix(1.303953 0 0 1.303954-22.405332-118.944985)"><rect width="119.858628" height="119.858628" rx="20" ry="20" transform="matrix(.595188 0 0 0.595188 173.238108 165.088678)" fill="#f91f2f" stroke-width="0"/><rect width="119.858628" height="119.858628" rx="20" ry="20" transform="matrix(.595188 0 0 0.595188 91.052743 165.088678)" fill="#fff341" stroke-width="0"/><rect width="119.858628" height="119.858628" rx="20" ry="20" transform="matrix(.595188 0 0 0.595188 255.423474 165.088678)" fill="#fff341" stroke-width="0"/><rect width="119.858628" height="119.858628" rx="20" ry="20" transform="matrix(.595188 0 0 0.595188 173.238108 247.274044)" fill="#fff341" stroke-width="0"/><rect width="119.858628" height="119.858628" rx="20" ry="20" transform="matrix(.595188 0 0 0.595188 91.052743 247.274044)" fill="#f91f2f" stroke-width="0"/><rect width="119.858628" height="119.858628" rx="20" ry="20" transform="matrix(.595188 0 0 0.595188 173.238106 329.459409)" fill="#f91f2f" stroke-width="0"/><rect width="119.858628" height="119.858628" rx="20" ry="20" transform="matrix(.595188 0 0 0.595188 91.052743 329.459409)" fill="#538bef" stroke-width="0"/><rect width="119.858628" height="119.858628" rx="20" ry="20" transform="matrix(.595188 0 0 0.595188 255.423476 247.274044)" fill="#538bef" stroke-width="0"/><rect width="119.858628" height="119.858628" rx="20" ry="20" transform="matrix(.595188 0 0 0.595188 255.423476 329.459409)" fill="#538bef" stroke-width="0"/></g></svg>
